<!-- icon666.com - MILLIONS vector ICONS FREE --><svg version="1.1" id="Capa_1" xmlns="http://www.w3.org/2000/svg" xmlns:xlink="http://www.w3.org/1999/xlink" x="0px" y="0px" viewBox="0 0 512 512" style="enable-background:new 0 0 512 512;" xml:space="preserve"><g><g><path d="M407,0H105C47.103,0,0,47.103,0,105v302c0,57.897,47.103,105,105,105h302c57.897,0,105-47.103,105-105V105 C512,47.103,464.897,0,407,0z M482,407c0,41.355-33.645,75-75,75H105c-41.355,0-75-33.645-75-75V105c0-41.355,33.645-75,75-75h302 c41.355,0,75,33.645,75,75V407z" fill="#000000" style="fill: rgb(163, 163, 163);"></path></g></g><g><g><path d="M385.744,135.426C350.957,106.777,304.879,91,256,91c-48.879,0-94.957,15.777-129.744,44.426 C90.624,164.771,71,204.04,71,246c0,45.416,23.053,87.592,63.612,117.051l-12.301,73.871l82.13-42.018 C221.147,398.951,238.463,401,256,401c48.879,0,94.957-15.778,129.744-44.426C421.376,327.229,441,287.96,441,246 S421.376,164.771,385.744,135.426z M256,371c-16.886,0-33.505-2.191-49.397-6.512l-5.601-1.523l-39.313,20.113l5.699-34.223 l-8.256-5.349C122.188,319.571,101,284.032,101,246c0-68.925,69.533-125,155-125s155,56.075,155,125S341.467,371,256,371z" fill="#000000" style="fill: rgb(163, 163, 163);"></path></g></g></svg>