<!-- icon666.com - MILLIONS vector ICONS FREE --><svg id="Layer_1" enable-background="new 0 0 48 48" viewBox="0 0 48 48" xmlns="http://www.w3.org/2000/svg"><g><path d="m10 33h3.13l-2.04 4.59c-.18.41-.07.88.27 1.17.18.16.41.24.64.24.19 0 .39-.06.55-.17l8.75-5.83h16.7c3.86 0 7-3.14 7-7v-10c0-3.86-3.14-7-7-7h-28c-3.86 0-7 3.14-7 7v10c0 3.86 3.14 7 7 7zm10.45-1.83-6.13 4.09 1.27-2.85c.553-1.449-.91-1.41-.91-1.41s0 0-.01 0h-4.67c-2.76 0-5-2.24-5-5v-10c0-2.76 2.24-5 5-5h28c2.76 0 5 2.24 5 5v10c0 2.76-2.24 5-5 5h-17c-.345 0-.55.17-.55.17z" fill="#000000" style="fill: rgb(163, 163, 163);"></path><path d="m12 24c1.65 0 3-1.35 3-3s-1.35-3-3-3-3 1.35-3 3 1.35 3 3 3zm0-4c.55 0 1 .45 1 1s-.45 1-1 1-1-.45-1-1 .45-1 1-1z" fill="#000000" style="fill: rgb(163, 163, 163);"></path><path d="m24 24c1.65 0 3-1.35 3-3s-1.35-3-3-3-3 1.35-3 3 1.35 3 3 3zm0-4c.55 0 1 .45 1 1s-.45 1-1 1-1-.45-1-1 .45-1 1-1z" fill="#000000" style="fill: rgb(163, 163, 163);"></path><path d="m36 24c1.65 0 3-1.35 3-3s-1.35-3-3-3-3 1.35-3 3 1.35 3 3 3zm0-4c.55 0 1 .45 1 1s-.45 1-1 1-1-.45-1-1 .45-1 1-1z" fill="#000000" style="fill: rgb(163, 163, 163);"></path></g></svg>